<?xml version="1.0" encoding="utf-8"?>
<!-- Generator: Adobe Illustrator 26.0.1, SVG Export Plug-In . SVG Version: 6.00 Build 0)  -->
<svg version="1.1" id="Layer_1" xmlns="http://www.w3.org/2000/svg" xmlns:xlink="http://www.w3.org/1999/xlink" x="0px" y="0px"
	 viewBox="0 0 100 100" style="enable-background:new 0 0 100 100;" xml:space="preserve">
<style type="text/css">
	.st0{fill:#FFFFFF;}
</style>
<g>
	<g transform="scale(5.12,5.12)">
		<path class="st0" d="M9,8.4C8.7,8.4,8.4,8.7,8.4,9v1.4c0,0.4,0.3,0.7,0.7,0.7h1.4c0.4,0,0.7-0.3,0.7-0.7V9c0-0.4-0.3-0.7-0.7-0.7
			H9z M9.3,8.9c0,0,0.1,0,0.1,0.1c0,0,0.1,0.1,0.1,0.2c0,0.1,0.1,0.2,0,0.2L9.4,9.5c0,0,0,0.1,0,0.1c0,0.1,0.1,0.2,0.2,0.3
			c0.1,0.1,0.2,0.1,0.3,0.2c0,0,0.1,0,0.1,0l0.1-0.1c0.1,0,0.2,0,0.2,0c0.1,0.1,0.1,0.1,0.2,0.1c0,0,0.1,0.1,0.1,0.1
			c0,0.2-0.2,0.3-0.2,0.3c0,0-0.5,0-1-0.4C8.9,9.6,9,9.2,9,9.1C9,9.1,9.1,8.9,9.3,8.9L9.3,8.9z"/>
	</g>
</g>
</svg>
