<?xml version="1.0" encoding="utf-8"?>
<!-- Generator: Adobe Illustrator 26.0.1, SVG Export Plug-In . SVG Version: 6.00 Build 0)  -->
<svg version="1.1" id="Layer_1" xmlns="http://www.w3.org/2000/svg" xmlns:xlink="http://www.w3.org/1999/xlink" x="0px" y="0px"
	 viewBox="0 0 90 90" style="enable-background:new 0 0 90 90;" xml:space="preserve">
<style type="text/css">
	.st0{fill:#FFFFFF;}
</style>
<g>
	<g transform="scale(8.53333,8.53333)">
		<path class="st0" d="M4.9,4.5c-0.3,0-0.5,0.2-0.5,0.5v0.7c0,0.3,0.2,0.5,0.5,0.5h0.7c0.3,0,0.5-0.2,0.5-0.5V4.9
			c0-0.3-0.2-0.5-0.5-0.5H4.9z M5.8,4.7C5.8,4.7,5.8,4.8,5.8,4.7c0.1,0.1,0,0.1,0,0.1S5.7,4.8,5.8,4.7C5.7,4.8,5.7,4.7,5.8,4.7z
			 M5.3,4.9c0.2,0,0.4,0.2,0.4,0.4S5.5,5.7,5.3,5.7C5,5.7,4.9,5.5,4.9,5.3S5,4.9,5.3,4.9z M5.3,5C5.1,5,5,5.1,5,5.3s0.1,0.3,0.3,0.3
			c0.2,0,0.3-0.1,0.3-0.3S5.4,5,5.3,5z"/>
	</g>
</g>
</svg>
