<?xml version="1.0" encoding="utf-8"?>
<!-- Generator: Adobe Illustrator 26.0.1, SVG Export Plug-In . SVG Version: 6.00 Build 0)  -->
<svg version="1.1" id="Layer_1" xmlns="http://www.w3.org/2000/svg" xmlns:xlink="http://www.w3.org/1999/xlink" x="0px" y="0px"
	 viewBox="0 0 100 100" style="enable-background:new 0 0 100 100;" xml:space="preserve">
<style type="text/css">
	.st0{fill:#FFFFFF;}
</style>
<g>
	<g transform="scale(5.12,5.12)">
		<path class="st0" d="M9.8,8.4C9,8.4,8.4,9,8.4,9.8c0,0.2,0.1,0.5,0.2,0.7l-0.2,0.6c0,0,0,0,0,0.1c0,0,0,0,0,0c0,0,0,0,0,0L9.1,11
			c0.2,0.1,0.4,0.2,0.6,0.2c0.8,0,1.4-0.6,1.4-1.4S10.5,8.4,9.8,8.4z M10.5,10.2c0,0.1-0.2,0.2-0.2,0.2c-0.1,0-0.1,0-0.2,0
			c-0.1,0-0.1,0-0.2-0.1c-0.4-0.2-0.6-0.5-0.6-0.5c0,0-0.1-0.2-0.1-0.4c0-0.2,0.1-0.3,0.1-0.3s0.1,0,0.1,0s0,0,0.1,0
			c0,0,0.1,0,0.1,0.1c0,0.1,0.1,0.2,0.1,0.3c0,0,0,0,0,0.1c0,0,0,0,0,0.1c0,0,0,0-0.1,0.1c0,0,0,0,0,0.1s0.1,0.1,0.2,0.2
			c0.1,0.1,0.2,0.2,0.3,0.2c0,0,0.1,0,0.1,0c0,0,0.1-0.1,0.1-0.1c0,0,0,0,0.1,0c0,0,0.2,0.1,0.2,0.1c0,0,0.1,0,0.1,0
			C10.5,10.1,10.5,10.2,10.5,10.2z"/>
	</g>
</g>
</svg>
